<?xml version="1.0" encoding="UTF-8" standalone="no"?>
<svg
   xmlns:dc="http://purl.org/dc/elements/1.1/"
   xmlns:cc="http://creativecommons.org/ns#"
   xmlns:rdf="http://www.w3.org/1999/02/22-rdf-syntax-ns#"
   xmlns:svg="http://www.w3.org/2000/svg"
   xmlns="http://www.w3.org/2000/svg"
   xmlns:sodipodi="http://sodipodi.sourceforge.net/DTD/sodipodi-0.dtd"
   xmlns:inkscape="http://www.inkscape.org/namespaces/inkscape"
   id="svg3430"
   width="711.20123"
   height="383.5975"
   viewBox="0 0 711.201 383.598"
   version="1.1"
   sodipodi:docname="project-logo.svg"
   inkscape:version="1.0.1 (3bc2e813f5, 2020-09-07)">
  <metadata
     id="metadata41">
    <rdf:RDF>
      <cc:Work
         rdf:about="">
        <dc:format>image/svg+xml</dc:format>
        <dc:type
           rdf:resource="http://purl.org/dc/dcmitype/StillImage" />
        <dc:title></dc:title>
      </cc:Work>
    </rdf:RDF>
  </metadata>
  <sodipodi:namedview
     pagecolor="#ffffff"
     bordercolor="#666666"
     borderopacity="1"
     objecttolerance="10"
     gridtolerance="10"
     guidetolerance="10"
     inkscape:pageopacity="0"
     inkscape:pageshadow="2"
     inkscape:window-width="1920"
     inkscape:window-height="1143"
     id="namedview39"
     showgrid="false"
     inkscape:zoom="0.92168007"
     inkscape:cx="513.81842"
     inkscape:cy="304.68986"
     inkscape:window-x="1920"
     inkscape:window-y="28"
     inkscape:window-maximized="1"
     inkscape:current-layer="g3476"
     inkscape:document-rotation="0" />
  <defs
     id="defs3434">
    <clipPath
       id="clipPath3444">
      <path
         id="path3446"
         d="M11.52 162C11.52 81.677 135.307 16.56 288 16.56S564.48 81.678 564.48 162 440.693 307.44 288 307.44 11.52 242.32 11.52 162" />
    </clipPath>
    <radialGradient
       id="radialGradient3452"
       cx="0"
       cy="0"
       r="1"
       fx="0"
       fy="0"
       gradientTransform="matrix(363.06,0,0,-363.06,177.52,256.31)"
       gradientUnits="userSpaceOnUse"
       spreadMethod="pad">
      <stop
         id="stop3454"
         offset="0"
         stop-color="#aeb2d5" />
      <stop
         id="stop3456"
         offset="0.3"
         stop-color="#aeb2d5" />
      <stop
         id="stop3458"
         offset="0.75"
         stop-color="#484c89" />
      <stop
         id="stop3460"
         offset="1"
         stop-color="#484c89" />
    </radialGradient>
    <clipPath
       id="clipPath3468">
      <path
         id="path3470"
         d="M0 324h576V0H0v324z" />
    </clipPath>
    <clipPath
       id="clipPath3480">
      <path
         id="path3482"
         d="M0 324h576V0H0v324z" />
    </clipPath>
    <filter
       style="color-interpolation-filters:sRGB;"
       inkscape:label="Swirl"
       id="filter4622"
       inkscape:menu="Distort"
       inkscape:menu-tooltip="Paint objects with a transparent turbulence which wraps around color edges"
       height="1.4"
       y="-0.2"
       width="1.4"
       x="-0.2">
      <feFlood
         flood-opacity="0.498039"
         flood-color="rgb(0,0,0)"
         result="flood"
         id="feFlood4612" />
      <feComposite
         in="flood"
         in2="SourceGraphic"
         operator="in"
         result="composite1"
         id="feComposite4614" />
      <feGaussianBlur
         in="composite1"
         stdDeviation="6"
         result="blur"
         id="feGaussianBlur4616" />
      <feOffset
         dx="6"
         dy="6"
         result="offset"
         id="feOffset4618" />
      <feComposite
         in="SourceGraphic"
         in2="offset"
         operator="over"
         result="fbSourceGraphic"
         id="feComposite4620" />
      <feColorMatrix
         result="fbSourceGraphicAlpha"
         in="fbSourceGraphic"
         values="0 0 0 -1 0 0 0 0 -1 0 0 0 0 -1 0 0 0 0 1 0"
         id="feColorMatrix4624" />
      <feFlood
         id="feFlood4626"
         flood-opacity="0.498039"
         flood-color="rgb(0,0,0)"
         result="flood"
         in="fbSourceGraphic" />
      <feComposite
         in2="fbSourceGraphic"
         id="feComposite4628"
         in="flood"
         operator="in"
         result="composite1" />
      <feGaussianBlur
         id="feGaussianBlur4630"
         in="composite1"
         stdDeviation="6"
         result="blur" />
      <feOffset
         id="feOffset4632"
         dx="6"
         dy="6"
         result="offset" />
      <feComposite
         in2="offset"
         id="feComposite4634"
         in="fbSourceGraphic"
         operator="over"
         result="fbSourceGraphic" />
      <feColorMatrix
         result="fbSourceGraphicAlpha"
         in="fbSourceGraphic"
         values="0 0 0 -1 0 0 0 0 -1 0 0 0 0 -1 0 0 0 0 1 0"
         id="feColorMatrix4636" />
      <feFlood
         id="feFlood4638"
         flood-opacity="0.498039"
         flood-color="rgb(0,0,0)"
         result="flood"
         in="fbSourceGraphic" />
      <feComposite
         in2="fbSourceGraphic"
         id="feComposite4640"
         in="flood"
         operator="in"
         result="composite1" />
      <feGaussianBlur
         id="feGaussianBlur4642"
         in="composite1"
         stdDeviation="6"
         result="blur" />
      <feOffset
         id="feOffset4644"
         dx="6"
         dy="6"
         result="offset" />
      <feComposite
         in2="offset"
         id="feComposite4646"
         in="fbSourceGraphic"
         operator="over"
         result="fbSourceGraphic" />
      <feColorMatrix
         result="fbSourceGraphicAlpha"
         in="fbSourceGraphic"
         values="0 0 0 -1 0 0 0 0 -1 0 0 0 0 -1 0 0 0 0 1 0"
         id="feColorMatrix312" />
      <feGaussianBlur
         id="feGaussianBlur314"
         stdDeviation="3"
         result="result10"
         in="fbSourceGraphic" />
      <feBlend
         in2="result10"
         id="feBlend316"
         mode="normal"
         in="result10"
         result="fbSourceGraphic" />
      <feGaussianBlur
         id="feGaussianBlur318"
         stdDeviation="3"
         result="result8"
         in="fbSourceGraphic" />
      <feTurbulence
         id="feTurbulence320"
         seed="0"
         result="result7"
         type="fractalNoise"
         numOctaves="1"
         baseFrequency="0.2" />
      <feComposite
         in2="result8"
         id="feComposite322"
         result="result6"
         operator="in"
         in="result8" />
      <feDisplacementMap
         in2="result6"
         id="feDisplacementMap324"
         in="result7"
         xChannelSelector="R"
         yChannelSelector="G"
         scale="50"
         result="result4" />
      <feComposite
         in2="result4"
         id="feComposite326"
         result="result2"
         operator="arithmetic"
         in="result8"
         k1="1"
         k3="1" />
      <feComposite
         in2="result2"
         id="feComposite328"
         result="fbSourceGraphic"
         in="fbSourceGraphic"
         operator="in" />
      <feDisplacementMap
         in2="result4"
         id="feDisplacementMap330"
         yChannelSelector="G"
         scale="50"
         xChannelSelector="R" />
    </filter>
    <filter
       inkscape:menu="Morphology"
       inkscape:menu-tooltip="Blurred colorized contour, filled inside"
       style="color-interpolation-filters:sRGB"
       inkscape:label="Warm Inside"
       id="filter470"
       x="-0.18616033"
       y="-0.46924627"
       width="1.3658628"
       height="2.0666397">
      <feColorMatrix
         values="0 0 0 0 0 0 0 0 0 0 0 0 0 0 0 0.21 0.72 0.07 0 0 "
         result="result1"
         id="feColorMatrix442" />
      <feColorMatrix
         values="1 0 0 0 0 0 1 0 0 0 0 0 1 0 0 0 0 0 2 0 "
         result="result9"
         id="feColorMatrix444" />
      <feComposite
         in2="result9"
         in="SourceGraphic"
         operator="in"
         result="result4"
         id="feComposite446" />
      <feFlood
         result="result2"
         flood-color="rgb(0,0,0)"
         id="feFlood448" />
      <feComposite
         in2="result9"
         operator="in"
         result="result10"
         id="feComposite450" />
      <feComposite
         in2="result4"
         operator="atop"
         id="feComposite452" />
      <feGaussianBlur
         stdDeviation="3"
         result="result8"
         id="feGaussianBlur454" />
      <feOffset
         dx="3"
         dy="3"
         result="result3"
         in="result8"
         id="feOffset456" />
      <feFlood
         flood-opacity="1"
         flood-color="rgb(219,173,62)"
         result="result5"
         id="feFlood458" />
      <feMerge
         result="result6"
         id="feMerge466">
        <feMergeNode
           in="result5"
           id="feMergeNode460" />
        <feMergeNode
           in="result3"
           id="feMergeNode462" />
        <feMergeNode
           in="result4"
           id="feMergeNode464" />
      </feMerge>
      <feComposite
         in2="SourceGraphic"
         operator="in"
         result="fbSourceGraphic"
         id="feComposite468" />
      <feColorMatrix
         result="fbSourceGraphicAlpha"
         in="fbSourceGraphic"
         values="0 0 0 -1 0 0 0 0 -1 0 0 0 0 -1 0 0 0 0 1 0"
         id="feColorMatrix472" />
      <feTurbulence
         id="feTurbulence474"
         type="fractalNoise"
         numOctaves="3"
         baseFrequency="1"
         seed="0"
         result="result0" />
      <feColorMatrix
         id="feColorMatrix476"
         result="result4"
         values="0"
         type="saturate" />
      <feComposite
         in2="result4"
         id="feComposite478"
         in="fbSourceGraphic"
         operator="arithmetic"
         k1="1.25"
         k2="0.5"
         k3="0.5"
         result="result2"
         k4="0" />
      <feBlend
         in2="fbSourceGraphic"
         id="feBlend480"
         result="result5"
         mode="normal"
         in="result2" />
      <feComposite
         in2="fbSourceGraphic"
         id="feComposite482"
         in="result5"
         operator="in"
         result="fbSourceGraphic" />
      <feColorMatrix
         result="fbSourceGraphicAlpha"
         in="fbSourceGraphic"
         values="0 0 0 -1 0 0 0 0 -1 0 0 0 0 -1 0 0 0 0 1 0"
         id="feColorMatrix484" />
      <feColorMatrix
         id="feColorMatrix486"
         values="1 0 0 0 0 0 1 0 0 0 0 0 1 0 0 0 0 0 1 0 "
         result="fbSourceGraphic"
         in="fbSourceGraphic" />
      <feGaussianBlur
         id="feGaussianBlur488"
         stdDeviation="3"
         result="result1" />
      <feOffset
         id="feOffset490"
         dx="2"
         dy="2"
         result="result6" />
      <feComposite
         in2="result1"
         id="feComposite492"
         operator="in"
         result="result2"
         in="result6" />
      <feColorMatrix
         id="feColorMatrix494"
         values="110"
         result="result3"
         type="hueRotate" />
      <feBlend
         in2="result3"
         id="feBlend496"
         mode="screen"
         in="result2"
         result="result4" />
      <feConvolveMatrix
         id="feConvolveMatrix498"
         order="3 3"
         kernelMatrix="-2 0 2 0 4 0 2 0 2"
         divisor="2"
         bias="0"
         targetX="0"
         in="result4"
         result="result5" />
      <feComposite
         in2="result5"
         id="feComposite500"
         operator="atop"
         in="result2" />
    </filter>
  </defs>
  <g
     id="g3440"
     transform="matrix(1.25,0,0,-1.25,-4.4,394.3)">
    <g
       clip-path="url(#clipPath3444)"
       id="g3442">
      <g
         id="g3448">
        <g
           id="g3450">
          <path
             inkscape:connector-curvature="0"
             style="fill:url(#radialGradient3452)"
             d="M 11.52,162 C 11.52,81.677 135.307,16.56 288,16.56 440.693,16.56 564.48,81.678 564.48,162 564.48,242.322 440.693,307.44 288,307.44 135.307,307.44 11.52,242.32 11.52,162"
             id="path3462" />
        </g>
      </g>
    </g>
  </g>
  <g
     id="g3464"
     transform="matrix(1.25,0,0,-1.25,-4.4,394.3)">
    <g
       clip-path="url(#clipPath3468)"
       id="g3466">
      <g
         transform="translate(288,27.36)"
         id="g3472">
        <path
           style="fill:#777bb3"
           inkscape:connector-curvature="0"
           d="M 0,0 C 146.73,0 265.68,60.28 265.68,134.64 265.68,209 146.73,269.283 0,269.283 c -146.73,0 -265.68,-60.282 -265.68,-134.64 C -265.68,60.28 -146.73,0 0,0"
           id="path3474" />
      </g>
    </g>
  </g>
  <g
     id="g3476"
     transform="matrix(1.25,0,0,-1.25,-4.4,394.3)">
    <g
       id="g4514"
       style="filter:url(#filter4622)"
       transform="rotate(-7.2325678,288.46266,166.55186)">
      <g
         id="g14"
         transform="matrix(28.377017,0,0,-28.377017,108.79034,8415.5854)">
        <g
           id="g12"
           transform="matrix(0.015609,0,0,-0.015609,-18.251,294.31)"
           style="clip-rule:evenodd;image-rendering:optimizeQuality;shape-rendering:geometricPrecision">
          <path
             id="path4"
             d="M 1708.7,0 1842.5,231.62 1976.2,0 Z"
             inkscape:connector-curvature="0"
             style="fill:#f9ae2d" />
          <path
             id="path6"
             d="m 1708.7,0 -133.75,231.62 h 267.53 z"
             inkscape:connector-curvature="0"
             style="fill:#d28b25" />
          <path
             id="path8"
             d="M 1574.9,231.62 1708.65,463.3 1842.43,231.62 Z"
             inkscape:connector-curvature="0"
             style="fill:#936327" />
          <path
             id="path10"
             d="M 1708.7,463.3 H 1441.2 L 1173.6,0 h 267.56 l 267.47,463.3"
             inkscape:connector-curvature="0"
             style="fill:#767a7c" />
        </g>
      </g>
    </g>
    <text
       xml:space="preserve"
       style="font-style:normal;font-weight:normal;font-size:192.25px;line-height:1.25;font-family:sans-serif;letter-spacing:0px;word-spacing:0px;fill:#000000;fill-opacity:1;stroke:none;stroke-width:4.80625;filter:url(#filter470)"
       x="54.298183"
       y="-113.78197"
       id="text334"
       transform="matrix(1,0,0,-1,17.17921,-13.161835)"><tspan
         sodipodi:role="line"
         id="tspan332"
         x="54.298183"
         y="-113.78197"
         style="stroke-width:4.80625">2.0α</tspan></text>
    <path
       style="fill:#540203;fill-opacity:1;stroke-width:0.380998"
       inkscape:connector-curvature="0"
       id="path951"
       d="m 476.77656,173.87031 c -0.27292,0.0316 -0.57976,0.0459 -0.83533,0.0436 -2.09506,-0.0871 -3.65509,0.95521 -5.03046,2.30591 -1.82253,1.8067 -3.35788,3.88867 -4.38441,6.23082 -1.2875,2.93616 -1.36499,5.8492 0.56971,8.59302 0.35348,0.48031 0.79215,0.96138 1.16298,1.40776 -0.5678,0.60828 -1.1861,1.14793 -1.73734,1.8075 -0.70581,0.79446 -1.17416,1.71034 -1.26938,2.81705 -0.13377,1.60049 0.5362,2.8845 1.99484,3.6304 0.33921,0.17346 0.71236,0.36428 1.08627,0.4699 0.49302,0.12376 0.9552,-0.11061 0.99297,-0.51923 0.0725,-0.47644 -0.28486,-0.53079 -0.658,-0.72161 -1.42471,-0.72855 -2.45509,-1.72616 -1.65561,-3.45694 0.45178,-0.96717 1.24278,-1.76086 1.89809,-2.62393 0.17269,-0.25403 0.42826,-0.25172 0.69887,-0.0278 0.55855,0.41402 1.18571,0.77752 1.69377,1.12291 -0.15997,0.73124 -0.42247,1.49565 -0.42942,2.26235 -0.12105,2.07772 1.28362,5.02121 4.09181,5.38742 1.24238,0.16459 2.11703,-0.45795 2.82361,-1.3376 0.12065,-0.15227 0.10794,-0.62948 -0.027,-0.78406 -0.10098,-0.13723 -0.5096,-0.17501 -0.7486,-0.12605 -0.29026,0.0655 -0.56472,0.26752 -0.75398,0.47027 -0.49843,0.47261 -1.07664,0.34809 -1.60281,0.12183 -1.23931,-0.50536 -1.75776,-1.58354 -2.07038,-2.81322 -0.19737,-0.7856 -0.10524,-1.55153 0.15728,-2.31593 0.0355,-0.15303 0.30992,-0.35502 0.46296,-0.31956 1.7512,0.4248 3.50396,0.67921 5.3103,0.66148 0.0339,0.0174 0.0678,0.0347 0.13569,0.0694 -0.0628,1.29443 0.21586,2.50675 0.85343,3.60305 1.27516,2.19258 3.48239,3.06452 5.70657,2.06229 0.88969,-0.40089 1.62865,-1.09281 2.40075,-1.6822 0.13724,-0.101 0.22628,-0.52617 0.0914,-0.68075 -0.0837,-0.17115 -0.45756,-0.27678 -0.64528,-0.24439 -0.32418,0.0482 -0.64992,0.26674 -0.97487,0.40012 -0.51346,0.25094 -0.99299,0.51923 -1.50644,0.77017 -1.02691,0.50188 -2.21803,0.32072 -2.97703,-0.53812 -0.87734,-0.96216 -1.41238,-2.0916 -1.36612,-3.43731 0.003,-0.34074 0.0898,-0.51036 0.48263,-0.60904 2.6802,-0.55508 4.87433,-2.00061 6.63134,-4.09759 0.75784,-0.89624 0.97217,-1.98481 1.3056,-3.05528 0.65108,-2.27739 0.70582,-4.56017 0.0278,-6.83255 -0.26444,-0.90549 -0.75052,-1.79594 -1.18456,-2.78814 0.78406,-0.027 1.58546,-0.0879 2.3861,-0.0636 1.37962,0.0636 2.6536,0.50112 3.52939,1.63366 0.38742,0.49765 0.60289,1.16413 0.8018,1.77935 0.11602,0.35888 0.11217,0.78483 0.62331,0.78945 0.47722,-0.0127 0.61676,-0.36927 0.67188,-0.81182 0.24093,-2.14477 -1.17145,-4.23637 -3.32895,-4.95451 -1.83487,-0.59595 -3.64198,-0.49303 -5.41979,0.13838 -0.30761,0.0994 -0.49457,0.0466 -0.71389,-0.1939 -0.65879,-0.63643 -1.33491,-1.23893 -2.06153,-1.91003 0.13723,-0.101 0.27523,-0.28718 0.46374,-0.40476 1.16489,-0.68807 2.36141,-1.10323 3.77495,-1.02227 0.86848,0.059 1.54692,0.4059 1.84604,1.24354 0.13261,0.41015 0.35116,0.73588 0.84651,0.60405 0.51268,-0.16575 0.46526,-0.57513 0.35,-1.01919 -0.17999,-0.81953 -0.34267,-1.67297 -1.12287,-2.07194 -0.57668,-0.29489 -1.20539,-0.48801 -1.85222,-0.56203 -1.90656,-0.20468 -3.54792,0.41092 -5.05743,1.52186 -0.0174,0.0339 -0.0686,0.0505 -0.086,0.0844 -0.53774,1.05159 -1.35418,0.89083 -2.28897,0.62678 -0.78174,-0.22859 -1.63285,-0.32148 -2.56842,-0.50035 0.24518,-0.73048 0.52348,-1.35842 1.07318,-1.84757 1.2366,-1.07935 2.72338,-1.56003 4.36011,-1.66449 0.69887,-0.0277 0.96715,0.45178 1.26937,0.94866 0.18465,0.30838 0.36928,0.61676 0.76285,0.43289 0.42749,-0.16651 0.43058,-0.50728 0.36582,-0.88273 -0.24399,-1.28017 -1.63094,-2.41732 -2.87564,-2.32636 -2.14864,0.18504 -4.11496,0.934 -5.49419,2.71066 -0.51731,0.67689 -0.83185,1.54305 -1.24818,2.35719 0.22087,0.0702 0.2548,0.0875 0.27138,0.13877 z m 9.17584,10.34078 c -0.32958,0.64452 -1.18379,0.89239 -1.79439,0.58015 -0.61059,-0.31223 -0.84187,-1.11519 -0.51306,-1.6745 0.31223,-0.61059 1.08125,-0.85924 1.69185,-0.547 0.61059,0.31223 0.89314,1.09862 0.6156,1.64135 z m -6.5797,5.92129 c 0.20816,-0.40706 0.68693,-0.59017 1.14525,-0.39858 0.40706,0.20816 0.62409,0.70426 0.41593,1.11133 -0.19158,0.45833 -0.75553,0.64065 -1.16259,0.4325 -0.40707,-0.20816 -0.57282,-0.72084 -0.39859,-1.14525 z m 2.97317,0.96409 c -0.47491,-0.24286 -0.62407,-0.70428 -0.43326,-1.07741 0.17347,-0.33923 0.63487,-0.4884 0.97408,-0.31494 0.33923,0.17347 0.52155,0.73742 0.34809,1.07664 -0.24208,0.38971 -0.56627,0.43789 -0.88891,0.31571 z m -0.58668,-6.71885 c -0.28795,-0.19003 -0.40475,-0.46372 -0.23128,-0.80295 0.19081,-0.37314 0.56627,-0.4379 0.92284,-0.29835 0.35655,0.13954 0.45601,0.44715 0.35039,0.82106 -0.17347,0.33921 -0.66881,0.47105 -1.04195,0.28024 z"
       class="st26"
       inkscape:transform-center-x="23.903264"
       inkscape:transform-center-y="11.480245" />
    <g
       transform="matrix(0.32932368,-0.17945253,-0.17945253,-0.32932368,270.67814,360.34532)"
       id="g959"
       style="fill:#cc0203;fill-opacity:1">
      <path
         style="fill:#cc0203;fill-opacity:1"
         inkscape:connector-curvature="0"
         id="path953"
         d="m 115.7,298.2 c -1.5,21.9 -2,43.6 4.1,65 -8.8,1.2 -16.9,-1 -24.4,-5.6 -7.4,-4.5 -13.7,-10.1 -16.9,-18.5 -2.1,1.6 -2.4,2.5 -1.8,4.8 0.6,2.2 1,4.5 1.3,6.8 0.1,1.3 -0.3,2.5 -1.3,3.5 -0.7,0.6 -1.6,0.9 -2.3,0.4 -0.7,-0.4 -1.3,-1.2 -1.6,-1.9 -0.4,-0.9 0.3,-1.5 1.8,-1.7 0.4,-2 -0.4,-3.8 -1,-5.6 -0.6,-1.7 -1.4,-3.5 -0.5,-5.2 0.7,-1.3 1.7,-2.5 2.8,-3.4 1.1,-1 1.5,-1.9 1.2,-3.5 -0.8,-4.6 -0.8,-9.3 -0.1,-13.9 0.1,-0.7 0.1,-1.4 0.2,-2.3 -0.5,0.2 -0.8,0.3 -1.1,0.4 -2.2,1.2 -4.4,2.4 -6.6,3.5 -1.2,0.7 -2.2,0.6 -2.8,-0.3 -0.6,-0.9 -0.3,-1.8 0.8,-2.7 2.4,-1.9 4.8,-3.6 7.8,-4.3 3.8,-0.9 4.4,-4 5,-7.1 0.1,-0.7 0.2,-1.3 0.2,-2 0,-0.4 0,-0.9 -0.2,-1.2 -1.4,-1.9 -2.8,-3.9 -4.4,-5.7 -0.8,-0.9 -2,-1.6 -3.1,-2.3 -1,-0.7 -1.5,-1.5 -1.1,-2.5 0.3,-1 1.3,-1.5 2.6,-1.3 3.1,0.5 5.2,2.4 6.8,5 0.9,1.4 1.8,2.8 2.8,4.2 1.3,-1.4 2.4,-2.6 3.5,-3.8 0.8,-1 1.6,-1.3 3,-0.8 3.8,1.4 7.9,1.6 11.9,1.7 4.4,0.1 8.7,0.1 13.1,0.1 0,0.2 0.2,0.2 0.3,0.2 z m -19.4,17.6 c -2.1,-0.1 -3.8,1.5 -3.8,3.6 -0.1,2 1.5,3.7 3.6,3.8 2,0.1 3.8,-1.5 3.8,-3.6 0.1,-2 -1.5,-3.7 -3.6,-3.8 z m -7.9,16.6 c 0,-1.7 -1.3,-3 -3.1,-3.1 -1.8,0 -3.1,1.4 -3.1,3.2 0,1.7 1.4,3 3.1,3 1.8,0 3.1,-1.3 3.1,-3.1 z m 15.1,2.5 c 0,-1.7 -1.3,-2.9 -3,-3 -1.6,0 -3,1.3 -3,2.9 0,1.7 1.4,3.1 3.1,3 1.7,0.1 2.9,-1.2 2.9,-2.9 z m 4.1,-28.6 c 0,-1.6 -1.3,-2.8 -2.8,-2.8 -1.6,0 -2.8,1.3 -2.8,2.9 0,1.6 1.1,2.8 2.7,2.8 1.6,0 2.9,-1.3 2.9,-2.9 z m -17.5,2.8 c 0,-1.5 -1.4,-2.8 -2.9,-2.8 -1.5,0 -2.8,1.4 -2.7,2.9 0.1,1.5 1.3,2.7 2.8,2.7 1.5,0.1 2.8,-1.3 2.8,-2.8 z m 21.7,34.2 c 0,-1.6 -1.1,-2.8 -2.6,-2.8 -1.5,0 -2.7,1.1 -2.7,2.6 0,1.5 1.1,2.8 2.6,2.8 1.4,0.1 2.6,-1.1 2.7,-2.6 z m -7.4,10.7 c 0,1.4 1.1,2.5 2.5,2.5 1.4,0 2.5,-1.1 2.5,-2.5 0,-1.4 -1.1,-2.5 -2.5,-2.5 -1.4,-0.1 -2.5,1.1 -2.5,2.5 z"
         class="st26" />
      <path
         style="fill:#cc0203;fill-opacity:1"
         inkscape:connector-curvature="0"
         id="path955"
         d="m 119.4,298.1 c 3.7,-0.4 7.2,-0.7 10.7,-1.1 5.1,-0.6 10.1,-2 14.8,-4.2 1.3,-0.6 2.4,-0.8 3.3,0.5 1.1,1.5 2.2,2.9 3.3,4.4 0.4,0.5 0.7,1.2 1.1,1.9 1.7,-1.7 2.8,-3.7 3.8,-5.8 0.5,-1.1 1.4,-1.6 2.4,-1.2 0.9,0.4 1.2,1.5 0.7,2.6 -1.2,2.7 -2.7,5.2 -5,7.1 -0.5,0.5 -0.6,0.9 -0.4,1.6 0.4,1.3 0.7,2.6 0.9,3.9 0.4,2.4 2,4 3.8,5.3 1.9,1.4 3.8,2.9 5.8,4.3 0.3,0.2 0.4,0.5 0.7,0.7 0.6,0.6 0.7,1.4 0.2,2.1 -0.5,0.8 -1.4,1 -2.1,0.6 -1.2,-0.7 -2.3,-1.5 -3.3,-2.3 -1.1,-0.8 -2.1,-1.7 -3.1,-2.5 -0.4,4.6 -0.7,9 -1.1,13.3 -0.4,4.3 1.1,7.8 4,10.8 1.3,1.4 2.8,2.6 4,4 0.8,1 1.5,2.2 2,3.3 0.7,1.6 0,3.3 -1.6,4.5 -0.8,0.6 -1.8,1.1 -2.7,1.6 -0.7,0.4 -1.6,0.3 -1.9,-0.4 -0.2,-0.5 0,-1.5 0.3,-1.9 0.6,-0.7 1.4,-1.2 2.2,-1.7 0.9,-0.5 1.1,-1.3 0.5,-2 -1,-1.2 -2,-2.3 -3.1,-3.3 -2.5,-2.1 -4.4,-4.5 -5.9,-7.4 -0.1,-0.1 -0.2,-0.3 -0.3,-0.4 -1.1,2.5 -2.1,5 -3.3,7.4 -1.7,3.5 -4.2,6.3 -7.2,8.8 -3,2.5 -6.1,4.7 -9.6,6.3 -2.4,1.1 -5,2 -7.5,2.9 -0.8,0.3 -1.2,0.1 -1.5,-0.8 -2.5,-8.1 -3.5,-16.5 -4.3,-24.9 -0.9,-10.1 -0.6,-20.2 -0.7,-30.3 0.1,-2.4 0.1,-5 0.1,-7.7 z m 14.9,9.7 c -2.3,0 -4.1,1.8 -4.1,4.1 0,2.2 1.8,4.1 4.1,4.1 2.2,0 4.1,-1.9 4.1,-4.2 -0.1,-2.1 -1.9,-4 -4.1,-4 z m 0.6,23 c -1.8,0 -3.2,1.4 -3.3,3.3 0,1.8 1.4,3.3 3.2,3.3 1.8,0 3.3,-1.4 3.4,-3.2 0.1,-1.8 -1.4,-3.4 -3.3,-3.4 z M 149,301.4 c 0,-1.5 -1.3,-2.6 -2.7,-2.6 -1.5,0 -2.7,1.2 -2.7,2.7 0,1.5 1.3,2.7 2.8,2.7 1.5,0 2.7,-1.3 2.6,-2.8 z m -19,21.7 c 0,-1.5 -1.2,-2.7 -2.6,-2.7 -1.5,0 -2.8,1.2 -2.7,2.7 0,1.5 1.2,2.7 2.7,2.7 1.4,0 2.6,-1.2 2.6,-2.7 z m 3.1,27.7 c 0,1.4 0.7,2.1 2,2.2 1.3,0 2.4,-1.1 2.4,-2.3 0,-1.2 -1,-2.3 -2.2,-2.3 -1.3,0 -2.2,1 -2.2,2.4 z m 15.7,-31 c 0,-1.1 -0.9,-2 -2,-2 -1.3,0 -2.3,1 -2.3,2.1 0,1.2 0.9,2.1 2,2.1 1.2,0 2.3,-1.1 2.3,-2.2 z m -2.2,14 c -1,0 -1.9,0.8 -1.9,1.8 0,1 0.8,1.8 1.7,1.8 1,0 1.9,-0.8 1.9,-1.8 0,-0.9 -0.7,-1.7 -1.7,-1.8 z"
         class="st26" />
      <path
         style="fill:#cc0203;fill-opacity:1"
         inkscape:connector-curvature="0"
         id="path957"
         d="m 118.5,294.6 c -5.9,-0.1 -11.7,0 -17.6,-0.3 -3.4,-0.2 -6.8,-0.8 -10.3,-1.2 -1.2,-0.1 -1.5,-0.8 -1.3,-1.8 0.6,-3.2 1,-6.5 1.7,-9.7 1.1,-4.8 3.4,-9.1 7,-12.5 4,-3.8 8.7,-6 14,-6.8 1.6,-0.2 3.2,-0.5 4.8,-0.7 7.8,-1.4 14.4,0.7 19.8,6.4 4.7,4.9 7.2,10.9 8.2,17.6 0,0.2 0,0.4 0,0.6 0,2.2 0,2.1 -2,3.1 -6.4,3.3 -13.4,4.1 -20.3,4.9 -1.4,0.2 -2.7,0.2 -4.1,0.3 0.1,0 0.1,0.1 0.1,0.1 z m 9.9,-24.1 c 0,-2 -1.6,-3.7 -3.6,-3.7 -2.1,-0.1 -3.8,1.6 -3.8,3.7 0,2 1.6,3.7 3.6,3.8 2,0 3.8,-1.7 3.8,-3.8 z m -15.8,0.7 c 0,-1.8 -1.6,-3.3 -3.3,-3.2 -1.8,0 -3.2,1.6 -3.2,3.4 0,1.8 1.5,3.2 3.2,3.2 1.8,0 3.3,-1.6 3.3,-3.4 z m 16.2,1.3 c 0,0.9 0.5,1.5 1.4,1.5 0.9,0 1.4,-0.5 1.5,-1.4 0,-0.9 -0.5,-1.4 -1.4,-1.5 -0.9,0 -1.3,0.6 -1.5,1.4 z m -22.9,1.8 c -0.2,-1.3 -0.7,-1.8 -1.5,-1.8 -0.8,0 -1.3,0.6 -1.3,1.4 0,0.9 0.6,1.5 1.5,1.4 0.4,-0.1 0.9,-0.7 1.3,-1 z"
         class="st26" />
    </g>
    <path
       style="fill:#bf02c8;fill-opacity:1;stroke-width:0.41943"
       inkscape:connector-curvature="0"
       id="path949"
       d="m 196.24227,128.72093 c -0.39668,-1.44128 -0.83684,-2.95184 -1.24056,-4.48525 -0.62706,-2.45568 -1.21767,-4.93422 -1.80828,-7.41277 -0.22332,-0.92226 -0.78271,-1.2473 -1.73634,-0.98691 -0.48769,0.11286 -0.9319,0.29503 -1.39785,0.44255 -0.33492,0.11358 -0.51001,0.32004 -0.44537,0.66579 0.10112,0.32288 0.30439,0.48507 0.66105,0.40614 0.52413,-0.13574 1.06999,-0.23682 1.5941,-0.37254 0.1722,1.00263 0.3591,1.94775 0.56772,2.92752 0.61941,2.60535 1.23881,5.21068 1.85823,7.81604 0.10813,0.41505 0.27443,0.84189 0.47716,1.24588 0.13753,0.30003 0.0717,0.43791 -0.24147,0.58614 -0.20386,0.0797 -0.42244,0.21686 -0.67745,0.37689 -0.34786,-0.55436 -0.674,-1.07408 -1.02187,-1.62843 -1.30451,-2.07885 -2.57261,-4.18055 -3.91354,-6.23655 -0.97132,-1.467 -1.99379,-2.8536 -2.96511,-4.32057 -0.47125,-0.67011 -0.42018,-0.75046 0.28669,-1.24232 0.40073,-0.25145 0.72153,-0.54936 1.10052,-0.83545 0.34258,-0.26322 0.39425,-0.58544 0.17683,-0.93193 -0.21742,-0.34647 -0.58113,-0.35968 -0.909,-0.15395 -0.64102,0.35402 -1.28209,0.70796 -1.84319,1.10841 -0.83082,0.61795 -0.9348,1.50412 -0.33308,2.38209 1.35559,1.9985 2.71126,3.99697 4.00873,5.98366 1.39907,2.0678 2.78354,4.19306 4.18265,6.26084 0.17394,0.27718 0.22449,0.43862 -0.0235,0.69081 -1.80853,1.81094 -1.69149,4.58667 0.0866,6.36834 1.24102,1.24945 2.72352,1.91275 4.57148,1.86382 0.0581,0.0117 0.11631,0.0236 0.11631,0.0236 -0.26901,2.96967 0.80872,5.57717 1.8935,8.2768 -0.78503,-0.28003 -1.51189,-0.54828 -2.27516,-0.79367 -1.52657,-0.49078 -3.11129,-0.99336 -4.61612,-1.44949 -0.95954,-0.3154 -1.72455,0.16467 -1.82147,1.14301 -0.1633,1.35804 -0.17384,2.71679 0.15762,4.05411 0.15867,0.57651 0.48539,0.85439 0.92194,0.8219 0.43658,-0.0325 0.80852,-0.41076 0.80261,-0.98656 0.002,-0.96728 -0.12639,-1.90061 -0.18225,-2.87966 -0.0358,-0.21895 -0.0135,-0.42614 -0.0201,-0.7601 1.21396,0.39718 2.32627,0.7133 3.44563,1.12157 1.35205,0.45543 2.67473,1.02586 4.04146,1.42378 0.68337,0.19895 0.98775,0.68402 1.31389,1.20372 0.97131,1.46699 1.92088,2.89933 2.89225,4.3663 0.0652,0.104 0.13045,0.20788 0.21742,0.34648 -1.11995,-0.16646 -2.2111,-0.20611 -3.27992,-0.45292 -1.61411,-0.38757 -2.48194,0.49505 -2.84913,1.93275 -0.33017,1.173 -0.58045,2.39246 -0.73611,3.60082 -0.25143,1.70309 -0.42999,3.36046 -0.58682,5.05246 -0.0816,0.67902 -0.0687,1.34696 -0.034,2.04956 0.0347,0.70259 0.55003,1.20016 1.26276,1.28409 1.49073,0.27183 2.97438,0.45149 4.42866,0.74618 1.2216,0.24753 2.45025,0.58722 3.67186,0.83475 0.8144,0.16503 1.70165,0.28432 2.53074,0.39184 0.38545,0.0479 0.68395,-0.0429 0.82316,-0.46832 0.10283,-0.40255 -0.10755,-0.65686 -0.47833,-0.76224 -2.12295,-0.55114 -4.18776,-1.0905 -6.31071,-1.64164 -1.20692,-0.30505 -2.41382,-0.61009 -3.599,-0.88048 -0.29086,-0.059 -0.37782,-0.19753 -0.3408,-0.46222 0.15567,-1.20838 0.31134,-2.41674 0.467,-3.62513 0.2438,-1.55341 0.48759,-3.10684 0.73138,-4.66026 0.0958,-0.4947 0.22795,-1.01228 0.32371,-1.50698 0.0811,-0.4372 0.35782,-0.56257 0.72152,-0.54936 1.04002,0.12002 2.06537,0.29755 3.08366,0.38291 1.01829,0.0853 1.59179,0.59472 2.15002,1.40341 2.11718,2.96932 4.46763,5.74397 6.96378,8.42718 1.2046,1.27231 2.44562,2.52177 3.68665,3.77122 0.18861,0.21969 0.4501,0.39362 0.71158,0.56758 0.98776,0.68402 2.15292,0.19431 2.25042,-1.02584 0.0898,-1.0705 0.0851,-2.12994 -0.0142,-3.17829 -0.21337,-2.0392 -0.76166,-3.96481 -1.4774,-5.83364 -0.41194,-1.14193 -0.72928,-2.29492 -1.15591,-3.37935 -0.68694,-1.74202 -1.38859,-3.42653 -2.14838,-5.12283 -0.29679,-0.6347 -0.40431,-1.2916 -0.28623,-1.99348 0.0816,-0.67902 0.19972,-1.3809 0.31075,-2.17494 1.10467,0.46579 2.12944,0.88512 3.11777,1.32733 2.05658,0.93084 4.07673,1.88454 6.0969,2.83824 0.35607,0.16288 0.7339,0.3604 1.08998,0.52328 0.436,0.20932 0.60993,0.4865 0.39783,0.95762 -0.3584,0.8044 -0.69505,1.64344 -1.03171,2.48248 -0.38777,0.91941 -0.75381,1.87346 -1.14158,2.79287 -0.19036,0.50577 -0.104,0.88619 0.2956,1.11836 0.39956,0.23217 1.00359,0.14288 1.29561,-0.28182 0.64983,-0.98727 1.37958,-1.92811 1.67333,-3.07827 0.21268,-0.71294 0.51996,-1.43697 0.76908,-2.17278 0.5417,-1.40233 0.13034,-2.78609 -1.25756,-3.46045 -2.19467,-0.98907 -4.34527,-2.15066 -6.53993,-3.13971 -1.38791,-0.67438 -2.84162,-1.21088 -4.29532,-1.74738 -1.14111,-0.44293 -1.89907,0.1293 -1.97482,1.3841 -0.0446,0.41434 -0.0893,0.82868 -0.13393,1.24303 -0.0364,0.0228 -0.0729,0.0456 -0.13106,0.0339 -0.19568,-0.31183 -0.39136,-0.62366 -0.58703,-0.93548 -0.90609,-1.36306 -1.79043,-2.69146 -2.733,-4.03161 -0.25384,-0.32363 -0.20216,-0.64581 -0.13577,-1.0255 0.56575,-2.33496 1.38595,-4.5881 2.33717,-6.8752 0.23974,0.13931 0.4213,0.26682 0.67573,0.34862 0.71217,0.32576 1.38791,0.67438 2.07833,0.96549 0.47243,0.18645 0.8802,0.0272 1.09936,-0.35182 0.21915,-0.37899 0.14745,-0.81691 -0.27385,-1.08373 -0.62462,-0.42898 -1.26393,-0.80047 -1.86681,-1.1948 -0.39957,-0.23218 -0.83556,-0.44149 -1.21338,-0.63902 -0.95191,-0.46505 -1.70224,-0.0426 -1.98837,0.95799 -0.3008,1.058 -0.6962,2.12707 -1.05518,3.17328 -0.42479,1.18408 -0.79139,2.37996 -1.19444,3.59868 -0.44243,-0.54331 -0.87024,-1.14407 -1.37089,-1.69915 -1.04477,-1.17944 -2.12597,-2.33603 -3.22891,-3.52726 -0.1886,-0.21968 -0.23916,-0.38112 -0.16572,-0.66866 0.9518,-2.5289 -0.10539,-4.61811 -1.86991,-5.97365 -0.7915,-0.61401 -1.78747,-0.90655 -2.84219,-0.96906 -0.86551,-0.0847 -1.70222,-0.0426 -2.61885,-0.0468 z m 0.76569,2.27207 c -0.28264,-0.45042 -0.0775,-1.0137 0.35956,-1.28803 0.45887,-0.23971 1.04062,-0.12179 1.28682,0.35149 0.26091,0.41577 0.11403,0.99084 -0.32312,1.26516 -0.43715,0.27433 -1.04061,0.12179 -1.32326,-0.32862 z m -3.28281,0.75617 c 0.43716,-0.27431 1.04061,-0.1218 1.32326,0.32863 0.2609,0.41576 0.0923,0.95619 -0.30844,1.20764 -0.43716,0.27433 -1.01887,0.15645 -1.27978,-0.25932 -0.28264,-0.45042 -0.19393,-1.03728 0.26496,-1.27695 z"
       class="st26" />
    <path
       style="fill:#1f00c9;fill-opacity:1;stroke-width:0.378792"
       inkscape:connector-curvature="0"
       id="path945"
       d="m 110.17457,213.1097 c 0.71971,0.64395 1.36365,1.28789 2.08336,1.85608 1.47728,1.13637 3.18185,1.74244 5.0758,1.40153 2.12124,-0.37879 3.21974,-1.8182 3.03034,-4.12883 -0.15152,-1.6288 -0.75759,-3.10609 -1.55305,-4.50762 -1.09849,-2.0076 -2.38639,-3.90156 -3.86367,-5.68188 -0.64395,-0.75758 -1.32577,-1.43941 -2.0076,-2.12123 -0.87122,-0.83334 -1.8182,-1.6288 -2.7273,-2.46215 -0.26515,-0.22727 -0.56819,-0.45455 -0.83334,-0.64395 0,-0.0379 0.0378,-0.0379 0.0378,-0.0757 0.68182,0.37879 1.40154,0.75759 2.08336,1.17426 1.13638,0.64394 2.34851,1.21213 3.67428,1.40153 1.32578,0.18939 2.57578,-0.11364 3.52275,-1.13638 0.5682,-0.60607 0.7576,-1.32577 0.79548,-2.12123 0,-1.25002 -0.49244,-2.31063 -1.25002,-3.25761 -0.83334,-1.06062 -1.85608,-1.96972 -3.03033,-2.65154 -1.89396,-1.0985 -3.97732,-1.66669 -6.17431,-1.89396 -1.55304,-0.15152 -3.10609,-0.0379 -4.65914,0.26515 -0.0379,0 -0.0757,0 -0.15152,0 0,-0.34091 0,-0.7197 0,-1.06062 0,-0.15151 0,-0.34091 -0.0379,-0.49242 -0.0757,-0.26516 -0.3409,-0.45455 -0.56818,-0.3788 -0.26515,0.0758 -0.30304,0.26516 -0.30304,0.53031 0,0.41667 -0.15151,0.79547 -0.18938,1.21214 -0.0379,0.45455 -0.26517,0.56818 -0.64395,0.68182 -0.64395,0.15152 -1.2879,0.37879 -1.96972,0.56819 -0.15152,-0.60607 -0.30303,-1.21214 -0.41667,-1.8182 -0.0379,-0.26516 -0.113643,-0.45455 -0.416683,-0.49243 -0.26515,-0.0379 -0.49242,0.0757 -0.56818,0.37879 -0.15152,0.64395 -0.1894,1.28789 0.0379,1.93184 0.0379,0.15152 0.11363,0.26515 0.1894,0.45455 -0.26515,0.11364 -0.49243,0.18939 -0.75759,0.30303 -1.36365,0.64395 -2.76518,1.25002 -4.12883,1.89396 -0.15151,0.0758 -0.34091,0.0758 -0.49243,0 -2.04547,-1.0985 -4.1667,-1.40153 -6.40157,-0.87122 -1.70457,0.37879 -3.14398,1.25001 -4.24247,2.7273 -1.32578,1.8182 -1.78033,3.86368 -1.40153,6.06067 0.26515,1.55305 1.02273,2.87882 2.15911,3.97731 0.11364,0.11364 0.26515,0.22728 0.45455,0.34092 -1.13638,1.17425 -2.12123,2.38638 -3.71216,2.76517 -0.53031,0.11364 -1.02274,0.15152 -1.55305,-0.0757 0,-0.34091 0.0379,-0.68182 0,-0.98486 -0.15152,-0.75758 -0.79546,-1.28789 -1.55304,-1.32577 -0.71971,-0.0379 -1.40153,0.45455 -1.62881,1.17426 -0.22727,0.68182 0.0379,1.51516 0.71971,1.89396 0.68182,0.41667 1.36365,0.79546 2.19699,0.79546 1.25001,0.0379 2.42427,-0.1894 3.447,-0.87122 0.79547,-0.53031 1.51517,-1.13638 2.23488,-1.70457 0.26515,-0.22727 0.49242,-0.53031 0.7197,-0.79546 0.60607,0.26515 1.21214,0.49243 1.8182,0.75758 0.0757,0.0379 0.15152,0.26516 0.11364,0.41668 -0.11364,0.60606 -0.26515,1.21213 -0.41667,1.8182 -0.30303,1.17425 -0.75758,2.31063 -1.32577,3.37124 -0.83335,1.47729 -2.61367,2.08336 -4.05308,1.78032 -0.22727,-0.0379 -0.41667,-0.15151 -0.60607,-0.26515 -0.22727,-0.15152 -0.37878,-0.30303 -0.18939,-0.64395 0.45456,-0.83334 0.0379,-1.89396 -0.83334,-2.23487 -0.87122,-0.37879 -1.85607,0.0379 -2.23487,0.9091 -0.34092,0.83334 0.0757,1.8182 0.94698,2.19699 0.26515,0.11364 0.49242,0.26516 0.68182,0.45455 1.17425,0.94698 2.5379,1.25002 4.0152,0.94698 1.06062,-0.18939 2.00759,-0.68182 2.76517,-1.43941 0.60607,-0.60606 1.06062,-1.32577 1.36365,-2.08335 0.49243,-1.21213 0.9091,-2.46215 1.06062,-3.78792 0.0379,-0.37879 0.0379,-0.7197 0.0757,-1.13637 0.1894,0 0.3788,0.0379 0.5682,0.0379 1.28788,0.18939 2.61365,0.22727 3.90155,-0.11364 1.21213,-0.34091 2.15912,-1.06062 2.95457,-2.0076 1.0985,-1.40152 1.8182,-2.95457 1.8182,-4.73489 0,-0.75758 -0.11363,-1.47729 -0.41667,-2.197 -0.0379,-0.0758 0,-0.30303 0.0379,-0.34091 0.87122,-0.49243 1.74244,-0.98486 2.613673,-1.47729 0.0379,-0.0379 0.11363,-0.0379 0.1894,-0.0379 -0.22726,0.53031 -0.454533,1.06062 -0.643933,1.55305 -0.5303,1.43941 -0.9091,2.91669 -1.13637,4.43186 -0.22728,1.51517 -0.49243,2.99246 -0.64395,4.50762 -0.26515,2.34851 -0.0379,4.69702 0.68182,6.93189 0.64395,2.04548 1.590933,3.90155 3.143983,5.37884 0.94697,0.9091 2.00759,1.62881 3.33337,1.93184 1.36365,0.34091 2.50002,-0.0379 3.447,-1.06062 0.7197,-0.75758 1.0985,-1.70456 1.36365,-2.68942 0.34091,-1.13637 0.41667,-2.27275 0.37879,-3.40912 z m -8.82584,-16.51532 c 0.0757,0.15152 0.0757,0.1894 0.11363,0.26515 0.41667,2.197 0.83335,4.35611 1.25002,6.5531 0.26515,1.28789 0.56818,2.53791 0.87122,3.8258 0.0379,0.22727 0.18939,0.41667 0.45455,0.37879 0.26515,-0.0757 0.26515,-0.30303 0.22728,-0.53031 -0.5682,-3.03033 -1.17427,-6.06067 -1.74245,-9.05312 -0.11364,-0.56819 -0.1894,-1.13638 -0.30303,-1.70456 0.0379,0 0.0379,-0.0379 0.0757,-0.0379 0.34091,0.45455 0.7197,0.87122 0.94698,1.36365 0.56819,1.06062 1.0985,2.15911 1.59092,3.25761 1.17425,2.7273 2.31063,5.49248 3.06822,8.37129 0.56818,2.12124 0.87122,4.28035 0.41666,6.47734 -0.18938,0.83334 -0.49242,1.59093 -1.02273,2.27275 -0.41667,0.49243 -0.9091,0.68183 -1.55305,0.60607 -0.79545,-0.11364 -1.47728,-0.53031 -2.08335,-0.98486 -1.40152,-1.0985 -2.3485,-2.57578 -2.95457,-4.24247 -0.833353,-2.19699 -1.174253,-4.50762 -1.022743,-6.85613 0.11364,-1.74244 0.378793,-3.48488 0.606073,-5.18944 0.15152,-1.06062 0.41667,-2.12124 0.64394,-3.14397 0.0757,-0.60607 0.22728,-1.06062 0.41668,-1.62881 z m 2.84093,-0.94698 c 0,-0.0379 0.0379,-0.0379 0.0379,-0.0758 0.0757,0.0379 0.15152,0.0758 0.26516,0.11364 0.94699,0.56818 1.93184,1.06061 2.80306,1.66668 1.25002,0.87122 2.46215,1.8182 3.59853,2.80306 0.94697,0.79546 1.85607,1.66668 2.68942,2.57578 1.40153,1.59093 2.65154,3.29549 3.63639,5.15157 0.71971,1.32577 1.32578,2.7273 1.51517,4.24247 0.22728,1.70456 -0.68182,2.68942 -2.38638,2.68942 -1.2879,0 -2.3864,-0.49243 -3.33338,-1.32577 -1.02273,-0.87122 -1.9697,-1.8182 -2.9167,-2.76518 -0.11363,-0.11364 -0.22727,-0.30304 -0.26515,-0.45455 -0.37878,-1.32577 -0.68182,-2.65154 -1.0985,-3.93944 -0.37878,-1.17425 -0.90909,-2.27275 -1.36365,-3.40912 -0.5303,-1.28789 -1.09849,-2.53791 -1.66667,-3.8258 -0.1894,-0.45455 -0.41668,-0.87122 -0.60608,-1.32577 0.0379,-0.0379 0.0757,-0.0379 0.0757,-0.0758 0.0379,0.0379 0.0379,0.11364 0.0757,0.15152 1.43941,1.51516 2.87882,3.06821 4.31823,4.58338 0.5303,0.56818 1.13637,1.09849 1.70456,1.6288 0.18939,0.15152 0.37878,0.1894 0.56819,0 0.1894,-0.1894 0.1894,-0.37879 0.0378,-0.60607 -0.11364,-0.11363 -0.1894,-0.26515 -0.30303,-0.37879 -0.64395,-0.7197 -1.32578,-1.40153 -2.0076,-2.12123 -1.28789,-1.36365 -2.57578,-2.7273 -3.90155,-4.05307 -0.45455,-0.34092 -0.98486,-0.79547 -1.47729,-1.25002 z m -18.977463,1.51517 c 0.49242,-0.0379 0.9091,0.37879 0.94698,0.87122 0.0379,0.49243 -0.37879,0.94698 -0.90911,0.98486 -0.49242,0.0379 -0.9091,-0.37879 -0.94697,-0.87122 -0.0379,-0.49243 0.37879,-0.94698 0.9091,-0.98486 z m 0.68182,2.84094 c 0,0.26515 -0.1894,0.45455 -0.45455,0.45455 -0.30303,0 -0.56818,-0.26516 -0.56818,-0.56819 0,-0.26515 0.1894,-0.49243 0.45455,-0.49243 0.34091,0 0.56818,0.30303 0.56818,0.60607 z"
       class="st26" />
  </g>
</svg>
